{"title":"Titoo MBA (2014) 480p UNTOUCHED WEB HD - AVC - AAC - Team IcTv E","uid":11945350,"size":730107487,"categoryP":"video","categoryS":"other","magnet":"?xt=urn:btih:30a79b29001cea269bb015e81c7f4bb708a05a16&amp;dn=Titoo+MBA+%282014%29+480p+UNTOUCHED+WEB+HD+-+AVC+-+AAC+-+Team+IcTv+E&amp;tr=udp%3A%2F%2Ftracker.openbittorrent.com%3A80&amp;tr=udp%3A%2F%2Fopen.demonii.com%3A1337&amp;tr=udp%3A%2F%2Ftracker.coppersurfer.tk%3A6969&amp;tr=udp%3A%2F%2Fexodus.desync.com%3A6969","seeders":1,"leechers":0,"uploader":"SS132203","files":2,"time":1432046622,"description":"Titoo MBA (2014) 480p UNTOUCHED WEB HD - AVC - AAC - Team IcTv Exclusive\n &lt;a href=&quot;\nhttp://imgsparrow.co/image/47&quot; rel=&quot;nofollow&quot; target=&quot;_NEW&quot;&gt;\nhttp://imgsparrow.co/image/47&lt;/a&gt;\n &lt;a href=&quot;\nhttp://imgsparrow.co/image/T5&quot; rel=&quot;nofollow&quot; target=&quot;_NEW&quot;&gt;\nhttp://imgsparrow.co/image/T5&lt;/a&gt;\n\nInfo : - \n\n[color=red]All Credit Goes To Intellect Clever &amp; IcTv[/color]\n\nMovie Info\nBanner : Beatrix Entertainment\nYear : 2014\nCast : Nishant Dahiya.Pragya Jaiswal.\nVideo: AVC\nAudio : AC3\nGenre : Drama\nSubtitles : None\nResolution : 1080p/720p/480p\nRuntime : 1hr 52min\nSource : Team IcTv\n\nFormat                      : MPEG-4\nFormat profile              : Base Media\nCodec ID                    : isom\nFile size                   : 696 MiB\nDuration                    : 1h 52mn\nOverall bit rate            : 866 Kbps\nWriting application         : Lavf55.33.100\n\nVideo\nID                          : 1\nFormat                      : AVC\nFormat/Info                 : Advanced Video Codec\nFormat profile              : &lt;a class=&quot;__cf_email__&quot; href=&quot;/cdn-cgi/l/email-protection&quot; data-cfemail=&quot;2d604c44436d611e031d&quot;&gt;[email&amp;#160;protected]&lt;/a&gt;&lt;script data-cfhash='f9e31' type=&quot;text/javascript&quot;&gt;\n/* &lt;![CDATA[ */!function(){try{var t=&quot;currentScript&quot;in document?document.currentScript:function(){for(var t=document.getElementsByTagName(&quot;script&quot;),e=t.length;e--;)if(t[e].getAttribute(&quot;data-cfhash&quot;))return t[e]}();if(t&amp;&amp;t.previousSibling){var e,r,n,i,c=t.previousSibling,a=c.getAttribute(&quot;data-cfemail&quot;);if(a){for(e=&quot;&quot;,r=parseInt(a.substr(0,2),16),n=2;a.length-n;n+=2)i=parseInt(a.substr(n,2),16)^r,e+=String.fromCharCode(i);e=document.createTextNode(e),c.parentNode.replaceChild(e,c)}t.parentNode.removeChild(t);}}catch(u){}}()/* ]]&gt; */&lt;/script&gt;\nFormat settings, CABAC      : Yes\nFormat settings, ReFrames   : 3 frames\nCodec ID                    : avc1\nCodec ID/Info               : Advanced Video Coding\nDuration                    : 1h 52mn\nDuration_FirstFrame         : -40ms\nBit rate                    : 734 Kbps\nWidth                       : 854 pixels\nHeight                      : 480 pixels\nDisplay aspect ratio        : 16:9\nFrame rate mode             : Variable\nFrame rate                  : 25.000 fps\nMinimum frame rate          : 25.000 fps\nMaximum frame rate          : 25.014 fps\nColor space                 : YUV\nChroma subsampling          : 4:2:0\nBit depth                   : 8 bits\nScan type                   : Progressive\nBits/(Pixel*Frame)          : 0.072\nStream size                 : 590 MiB (85%)\n\nAudio\nID                          : 2\nFormat                      : AAC\nFormat/Info                 : Advanced Audio Codec\nFormat profile              : LC\nCodec ID                    : 40\nDuration                    : 1h 52mn\nBit rate mode               : Constant\nBit rate                    : 126 Kbps\nChannel(s)                  : 2 channels\nChannel positions           : Front: L R\nSampling rate               : 44.1 KHz\nCompression mode            : Lossy\nStream size                 : 101 MiB (14%)\n\nScreens : - \n\nClick Image To View Full Size\n &lt;a href=&quot;\nhttp://imgsparrow.co/image/TA&quot; rel=&quot;nofollow&quot; target=&quot;_NEW&quot;&gt;\nhttp://imgsparrow.co/image/TA&lt;/a&gt; &lt;a href=&quot;\nhttp://imgsparrow.co/image/TQ&quot; rel=&quot;nofollow&quot; target=&quot;_NEW&quot;&gt;\nhttp://imgsparrow.co/image/TQ&lt;/a&gt; &lt;a href=&quot;\nhttp://imgsparrow.co/image/TZ&quot; rel=&quot;nofollow&quot; target=&quot;_NEW&quot;&gt;\nhttp://imgsparrow.co/image/TZ&lt;/a&gt; &lt;a href=&quot;\nhttp://imgsparrow.co/image/Ta&quot; rel=&quot;nofollow&quot; target=&quot;_NEW&quot;&gt;\nhttp://imgsparrow.co/image/Ta&lt;/a&gt; &lt;a href=&quot;\nhttp://imgsparrow.co/image/Tf&quot; rel=&quot;nofollow&quot; target=&quot;_NEW&quot;&gt;\nhttp://imgsparrow.co/image/Tf&lt;/a&gt; &lt;a href=&quot;\nhttp://imgsparrow.co/image/TI&quot; rel=&quot;nofollow&quot; target=&quot;_NEW&quot;&gt;\nhttp://imgsparrow.co/image/TI&lt;/a&gt; &lt;a href=&quot;\nhttp://imgsparrow.co/image/TP&quot; rel=&quot;nofollow&quot; target=&quot;_NEW&quot;&gt;\nhttp://imgsparrow.co/image/TP&lt;/a&gt; &lt;a href=&quot;\nhttp://imgsparrow.co/image/TW&quot; rel=&quot;nofollow&quot; target=&quot;_NEW&quot;&gt;\nhttp://imgsparrow.co/image/TW&lt;/a&gt; &lt;a href=&quot;\nhttp://imgsparrow.co/image/TX&quot; rel=&quot;nofollow&quot; target=&quot;_NEW&quot;&gt;\nhttp://imgsparrow.co/image/TX&lt;/a&gt; &lt;a href=&quot;\nhttp://imgsparrow.co/image/TY&quot; rel=&quot;nofollow&quot; target=&quot;_NEW&quot;&gt;\nhttp://imgsparrow.co/image/TY&lt;/a&gt;\n &lt;a href=&quot;\nhttp://imgsparrow.co/image/N2&quot; rel=&quot;nofollow&quot; target=&quot;_NEW&quot;&gt;\nhttp://imgsparrow.co/image/N2&lt;/a&gt;","torrent":{"xt":"urn:btih:30a79b29001cea269bb015e81c7f4bb708a05a16","amp;dn":"Titoo+MBA+%282014%29+480p+UNTOUCHED+WEB+HD+-+AVC+-+AAC+-+Team+IcTv+E","amp;tr":["udp%3A%2F%2Ftracker.openbittorrent.com%3A80","udp%3A%2F%2Fopen.demonii.com%3A1337","udp%3A%2F%2Ftracker.coppersurfer.tk%3A6969","udp%3A%2F%2Fexodus.desync.com%3A6969"],"infoHash":"30a79b29001cea269bb015e81c7f4bb708a05a16","infoHashBuffer":{"type":"Buffer","data":[48,167,155,41,0,28,234,38,155,176,21,232,28,127,75,183,8,160,90,22]},"announce":[],"urlList":[]}}